<svg width="41" height="41" viewBox="0 0 41 41" fill="none" xmlns="http://www.w3.org/2000/svg">
<path d="M40.5868 10.9898L33.2681 6.94369C32.8811 6.72942 32.3938 6.87018 32.1798 7.25712C31.9659 7.64406 32.1063 8.13141 32.4933 8.34537L39.3984 12.1628V39.3975H35.875V14.253C35.875 13.8107 35.5165 13.4522 35.0742 13.4522H5.92578C5.48347 13.4522 5.125 13.8107 5.125 14.253V18.0658C5.125 18.5081 5.48347 18.8666 5.92578 18.8666C6.36809 18.8666 6.72656 18.5081 6.72656 18.0658V15.0538H34.2734V39.3975H30.9205V31.3897C30.9205 30.5067 30.202 29.7882 29.3189 29.7882H26.1158V21.7804C26.1158 20.8973 25.3973 20.1788 24.5142 20.1788H16.5064C15.6231 20.1788 14.9049 20.8973 14.9049 21.7804V29.7882H11.6914C10.8084 29.7882 10.0898 30.5067 10.0898 31.3897V39.3975H6.72656V24.472C6.72656 24.0297 6.36809 23.6713 5.92578 23.6713C5.48347 23.6713 5.125 24.0297 5.125 24.472V39.3975H1.60156V12.1628L20.5 1.71484L26.8865 5.24578C27.2735 5.45974 27.7608 5.31929 27.9748 4.93235C28.1888 4.54541 28.0483 4.05806 27.6614 3.8441L20.8876 0.0991993C20.6464 -0.0343685 20.3536 -0.0343685 20.1124 0.0991993L0.413216 10.9898C0.158279 11.1306 0 11.399 0 11.6905V40.1983C0 40.6406 0.358475 40.9991 0.800781 40.9991H40.1992C40.6415 40.9991 41 40.6406 41 40.1983V11.6905C41 11.399 40.8417 11.1306 40.5868 10.9898ZM24.5142 31.3897H26.1158V32.9913H24.5142V31.3897ZM21.3008 21.7804V23.3819H19.6992V21.7804H21.3008ZM16.5064 21.7804H18.0977V24.1827C18.0977 24.625 18.4561 24.9835 18.8984 24.9835H22.1016C22.5439 24.9835 22.9023 24.625 22.9023 24.1827V21.7804H24.5142L24.5152 29.7882C24.5152 29.7882 24.5149 29.7882 24.5142 29.7882H16.5064V21.7804ZM16.5064 31.3897V32.9913H14.9049V31.3897H16.5064ZM11.6914 39.3975V31.3897H13.3033V33.7921C13.3033 34.2344 13.6618 34.5928 14.1041 34.5928H17.3072C17.7492 34.5928 18.108 34.2344 18.108 33.7921V31.3897H19.6992L19.7002 39.3975C19.7002 39.3975 19.6998 39.3975 19.6992 39.3975H11.6914ZM21.3111 39.3975V31.3897H22.9127V33.7921C22.9127 34.2344 23.2711 34.5928 23.7134 34.5928H26.9166C27.3586 34.5928 27.7174 34.2344 27.7174 33.7921V31.3897H29.3189L29.3199 39.3975C29.3199 39.3975 29.3195 39.3975 29.3189 39.3975H21.3111Z" fill="#40B7E7"/>
</svg>
