<svg width="35" height="45" viewBox="0 0 35 45" fill="none" xmlns="http://www.w3.org/2000/svg">
<path d="M28.5517 0H6.05225C5.22385 0 4.55229 0.671555 4.55229 1.49996V6.74982C4.55229 7.57823 5.22385 8.24979 6.05225 8.24979H8.3022V11.9997C8.3022 12.2922 8.0622 11.8047 12.8021 19.7095V22.2894C12.8021 22.8444 12.8021 22.7619 14.9395 26.2718C15.2058 26.7331 15.6968 27.0186 16.2295 27.0218H16.552V30.2617L0.802391 36.4566C0.371533 36.6229 0.0874023 37.0372 0.0874023 37.499C0.0874023 37.9609 0.371533 38.3751 0.802391 38.5415C17.482 45.2463 16.4695 44.9988 17.302 44.9988C18.1344 44.9988 17.1295 45.2463 33.8015 38.5415C34.2309 38.3718 34.513 37.957 34.513 37.4953C34.513 37.0336 34.2309 36.6188 33.8015 36.4491L18.0519 30.2392V26.9993H18.3744C18.9071 26.9961 19.3981 26.7106 19.6644 26.2493C21.7343 22.7994 21.8018 22.8219 21.8018 22.2669V19.7095C26.5192 11.8422 26.3017 12.2997 26.3017 11.9997V8.24979H28.5517C29.3801 8.24979 30.0516 7.57823 30.0516 6.74982V1.49996C30.0516 0.671555 29.3801 0 28.5517 0V0ZM16.552 31.8517V37.019L9.28467 40.3715L2.18986 37.499L16.552 31.8517ZM32.4141 37.499L17.8569 43.3939C17.5006 43.5358 17.1034 43.5358 16.747 43.3939L11.1896 41.1439L17.617 38.144C17.8708 38.0269 18.0385 37.7783 18.0519 37.499V31.8517L32.4141 37.499ZM20.3019 22.2894L18.3744 25.4993H16.2295L14.302 22.2894V20.2495H20.3019V22.2894ZM24.8018 11.2497H16.552C16.1378 11.2497 15.802 11.5855 15.802 11.9997C15.802 12.4139 16.1378 12.7497 16.552 12.7497H24.2243L20.6244 18.7495H13.9795L10.3796 12.7497H12.8021C13.2163 12.7497 13.5521 12.4139 13.5521 11.9997C13.5521 11.5855 13.2163 11.2497 12.8021 11.2497H9.80216V8.24979H24.8018V11.2497ZM28.5517 6.74982H6.05225V1.49996H7.55222V2.99992C7.55222 3.41412 7.88799 3.7499 8.3022 3.7499C8.7164 3.7499 9.05218 3.41412 9.05218 2.99992V1.49996H10.5521V2.99992C10.5521 3.41412 10.8879 3.7499 11.3021 3.7499C11.7163 3.7499 12.0521 3.41412 12.0521 2.99992V1.49996H13.5521V2.99992C13.5521 3.41412 13.8878 3.7499 14.302 3.7499C14.7162 3.7499 15.052 3.41412 15.052 2.99992V1.49996H16.552V2.99992C16.552 3.41412 16.8878 3.7499 17.302 3.7499C17.7162 3.7499 18.0519 3.41412 18.0519 2.99992V1.49996H19.5519V2.99992C19.5519 3.41412 19.8877 3.7499 20.3019 3.7499C20.7161 3.7499 21.0519 3.41412 21.0519 2.99992V1.49996H22.5518V2.99992C22.5518 3.41412 22.8876 3.7499 23.3018 3.7499C23.716 3.7499 24.0518 3.41412 24.0518 2.99992V1.49996H25.5517V2.99992C25.5517 3.41412 25.8875 3.7499 26.3017 3.7499C26.7159 3.7499 27.0517 3.41412 27.0517 2.99992V1.49996H28.5517V6.74982Z" fill="#40B7E7"/>
</svg>
