<svg width="43" height="43" viewBox="0 0 43 43" fill="none" xmlns="http://www.w3.org/2000/svg">
<path d="M42.9941 29.8338C42.9845 29.4089 42.6553 29.0595 42.2302 29.0225C40.2391 28.8492 37.7889 27.5177 35.9878 25.6304C35.8297 25.4649 35.6105 25.3712 35.3812 25.3711C35.3811 25.3711 35.381 25.3711 35.3809 25.3711C35.1518 25.3711 34.9326 25.4647 34.7745 25.63C33.9661 26.476 33.0277 27.2099 32.0593 27.7782C30.36 25.8897 28.2685 24.4983 25.8172 23.6225C25.7959 23.6139 25.7743 23.6062 25.7522 23.5994C25.5613 23.5321 25.3681 23.4678 25.1728 23.4066C27.2459 21.3483 28.6403 18.6433 28.6403 16.2168V14.9076C29.6203 14.4828 30.3075 13.5091 30.3075 12.3781C30.3075 11.2032 29.5648 10.1984 28.5225 9.80301C28.0923 5.64491 25.1496 2.1495 21.1076 0.993092C20.9881 0.426718 20.4827 0 19.8789 0H16.8458C16.2635 0 15.7739 0.397303 15.6326 0.933679C13.6444 1.46156 11.8283 2.5883 10.4666 4.15485C9.08459 5.7449 8.22517 7.73058 8.00688 9.80343C6.96408 10.1991 6.22108 11.2037 6.22108 12.3781C6.22108 13.5096 6.90934 14.4836 7.89063 14.9081V16.2169C7.89063 18.6412 9.28531 21.3471 11.3583 23.4069C11.1687 23.4662 10.981 23.5283 10.7954 23.5935C10.7589 23.6038 10.7234 23.6165 10.6889 23.6316C7.9452 24.617 5.6546 26.248 3.86076 28.5004C2.13556 30.6668 0.909112 33.342 0.21558 36.4524C-0.0312484 37.564 -0.216893 38.9609 0.544434 39.9046C1.2881 40.8265 2.61875 40.9447 3.69504 40.9447H9.17022C9.63249 40.9447 10.0072 40.5715 10.0072 40.1114C10.0072 39.6512 9.63249 39.2781 9.17022 39.2781H3.69504C2.69374 39.2781 2.07286 39.1378 1.84964 38.8611C1.61319 38.5679 1.61336 37.8786 1.84989 36.8128C2.71978 32.9121 4.84674 28.1387 9.97139 25.7286C9.81378 28.5437 11.3459 30.3837 12.3197 31.5515C12.4688 31.7304 12.6861 31.839 12.9192 31.8514C13.1521 31.8643 13.38 31.7788 13.5473 31.6168L18.2644 27.0498L22.9838 31.6169C23.1404 31.7684 23.3498 31.8527 23.5671 31.8527C23.5821 31.8527 23.5971 31.8523 23.6123 31.8514C23.8454 31.8389 24.0627 31.73 24.2117 31.5509C25.1842 30.3821 26.7141 28.541 26.5579 25.7319C28.0446 26.434 29.3582 27.373 30.4878 28.5428C29.8133 28.8027 29.15 28.9687 28.5316 29.0226C28.1067 29.0595 27.7777 29.4087 27.7678 29.8332C27.6977 32.8124 28.1965 34.9469 29.5459 37.4451C29.5572 37.4663 30.0132 38.28 30.7238 39.2783H16.7478C16.2855 39.2783 15.9108 39.6514 15.9108 40.1115C15.9108 40.5717 16.2855 40.9448 16.7478 40.9448H32.0531C33.0621 42.0551 34.2523 43 35.3809 43C38.1038 43 41.1859 37.5007 41.2155 37.4457C42.5628 34.947 43.0613 32.8129 42.9941 29.8338ZM26.814 9.62311H22.2057C21.3351 7.35886 21.1703 5.49175 21.1408 2.75088C24.1597 3.81388 26.3544 6.46584 26.814 9.62311ZM17.2639 1.66654H19.4607C19.466 4.89196 19.5481 7.07647 20.4252 9.62311H16.3011C17.1767 7.07638 17.2587 4.89163 17.2639 1.66654ZM15.5847 2.68513C15.557 5.46209 15.397 7.34069 14.521 9.62319H9.71652C10.1939 6.42485 12.5034 3.70097 15.5847 2.68513ZM8.99077 11.2896H14.5901C14.6394 11.3295 14.6871 11.3346 14.7271 11.2896H27.5402C28.1431 11.2896 28.6335 11.7779 28.6335 12.3781C28.6335 12.9797 28.1431 13.4691 27.5402 13.4691H8.99077C8.38663 13.4691 7.89506 12.9797 7.89506 12.3781C7.89506 11.7779 8.38654 11.2896 8.99077 11.2896ZM9.56461 16.2169V15.1355H26.9663V16.2169C26.9663 19.3938 23.8747 23.3229 20.3503 24.6254C18.8082 25.1959 17.7133 25.1954 16.1676 24.6236C12.6501 23.3157 9.56461 19.3873 9.56461 16.2169ZM13.0383 29.7848C12.172 28.6589 11.3379 27.1807 11.7388 25.0349C12.108 24.9163 12.4895 24.808 12.885 24.7123C13.7291 25.3288 14.6394 25.8344 15.5831 26.1853C15.8868 26.2976 16.1791 26.3902 16.465 26.4672L13.0383 29.7848ZM23.4918 29.7843L20.063 26.4662C20.3452 26.3899 20.6337 26.2985 20.9331 26.1877C21.8815 25.8372 22.7963 25.3306 23.6442 24.7121C24.0349 24.8068 24.417 24.914 24.7898 25.0342C25.1917 27.1769 24.3579 28.6567 23.4918 29.7843ZM39.7403 36.6579C38.7505 38.497 36.4325 41.3333 35.3809 41.3333C34.3293 41.3333 32.0112 38.497 31.0208 36.6567C29.9147 34.6092 29.4608 32.9018 29.4362 30.5769C30.3392 30.4059 31.2792 30.0704 32.2036 29.6019C32.236 29.5878 32.2677 29.5713 32.2987 29.5528C33.3781 28.9942 34.4337 28.255 35.3805 27.3765C37.1632 29.0322 39.3334 30.1999 41.3248 30.577C41.2985 32.9022 40.8447 34.61 39.7403 36.6579Z" fill="#40B7E7"/>
</svg>
