<svg width="120" height="42" viewBox="0 0 120 42" fill="none" xmlns="http://www.w3.org/2000/svg">
<path d="M0.00195312 0.996094H5.59766C6.93229 0.996094 8.04883 1.43555 8.94727 2.31445C9.85221 3.18685 10.3047 4.2513 10.3047 5.50781C10.3047 6.75781 9.85221 7.81901 8.94727 8.69141C8.04883 9.5638 6.93229 10 5.59766 10H2.19922V15H0.00195312V0.996094ZM5.59766 2.99805H2.19922V7.99805H5.59766C6.28776 7.99805 6.87695 7.76042 7.36523 7.28516C7.85352 6.80339 8.09766 6.21094 8.09766 5.50781C8.09766 4.79818 7.85352 4.20247 7.36523 3.7207C6.87695 3.23893 6.28776 2.99805 5.59766 2.99805ZM16.0953 12.998H23.9957V15H13.898V0.996094H23.8004V2.99805H16.0953V6.69922H22.1988V8.70117H16.0953V12.998ZM33.7902 7.59766C33.8618 7.6237 33.9562 7.65951 34.0734 7.70508C34.1906 7.75716 34.399 7.87435 34.6984 8.05664C34.9979 8.23242 35.2616 8.4375 35.4895 8.67188C35.7173 8.90625 35.9224 9.23503 36.1047 9.6582C36.2935 10.0749 36.3879 10.5208 36.3879 10.9961C36.3879 12.1549 35.8964 13.1445 34.9133 13.9648C33.9367 14.7852 32.6281 15.1953 30.9875 15.1953C30.3234 15.1953 29.6822 15.1172 29.0637 14.9609C28.4452 14.7982 27.9341 14.6094 27.5305 14.3945C27.1333 14.1732 26.7785 13.9486 26.466 13.7207C26.16 13.4928 25.9354 13.3008 25.7922 13.1445L25.5871 12.9004L26.9934 11.5039C27.0324 11.543 27.091 11.6016 27.1691 11.6797C27.2538 11.7578 27.423 11.8945 27.677 12.0898C27.9374 12.2852 28.2108 12.4609 28.4973 12.6172C28.7837 12.7669 29.1548 12.9036 29.6105 13.0273C30.0663 13.1445 30.5253 13.2031 30.9875 13.2031C31.9901 13.2031 32.7746 12.9785 33.341 12.5293C33.9074 12.0801 34.1906 11.5365 34.1906 10.8984C34.1906 10.2604 33.9074 9.72005 33.341 9.27734C32.7746 8.82812 31.9901 8.60352 30.9875 8.60352H29.2883V6.60156H30.9875C31.8013 6.60156 32.4393 6.41602 32.9016 6.04492C33.3638 5.66732 33.5949 5.21159 33.5949 4.67773C33.5949 4.1569 33.3638 3.71419 32.9016 3.34961C32.4393 2.98503 31.8013 2.80273 30.9875 2.80273C30.4016 2.80273 29.8254 2.92969 29.259 3.18359C28.6926 3.4375 28.2694 3.68164 27.9895 3.91602L27.5891 4.29688L26.1926 2.90039C26.2316 2.84831 26.2967 2.77669 26.3879 2.68555C26.4855 2.58789 26.6874 2.41536 26.9934 2.16797C27.2993 1.92057 27.6216 1.70898 27.9602 1.5332C28.2987 1.35091 28.7447 1.1849 29.298 1.03516C29.8514 0.878906 30.4146 0.800781 30.9875 0.800781C32.4784 0.800781 33.6503 1.1556 34.5031 1.86523C35.3625 2.56836 35.7922 3.44727 35.7922 4.50195C35.7922 4.93164 35.7206 5.33203 35.5773 5.70312C35.4406 6.07422 35.2746 6.37044 35.0793 6.5918C34.8905 6.81315 34.6984 7.00521 34.5031 7.16797C34.3078 7.32422 34.1385 7.4349 33.9953 7.5L33.7902 7.59766ZM42.1883 0.996094V7.80273L48.4871 0.996094H51.2898L45.8895 6.79688L51.6902 15H48.9852L44.3855 8.39844L42.1883 10.8008V15H39.991V0.996094H42.1883ZM52.6957 15L58.4965 0.996094H60.6937L66.4945 15H64.1996L62.6957 11.2988H56.4945L54.9906 15H52.6957ZM59.6 3.49609L57.2953 9.29688H61.8949L59.6 3.49609ZM85.0094 0.996094V15H82.8121V2.99805H75.9078V15H73.7105V0.996094H85.0094ZM87.802 15L93.6027 0.996094H95.8L101.601 15H99.3059L97.802 11.2988H91.6008L90.0969 15H87.802ZM94.7063 3.49609L92.4016 9.29688H97.0012L94.7063 3.49609ZM111.708 7.80273L117.108 0.996094H119.012V15H116.815V4.80469L111.708 11.2012L106.61 4.80469V15H104.413V0.996094H106.307L111.708 7.80273Z" fill="#40B7E7"/>
<path d="M0.0996094 26.9961H5.40234C6.69792 26.9961 7.77214 27.416 8.625 28.2559C9.47786 29.0957 9.9043 30.1439 9.9043 31.4004C9.9043 32.6504 9.47461 33.6986 8.61523 34.5449C7.76237 35.3848 6.69141 35.8047 5.40234 35.8047H1.60352V41H0.0996094V26.9961ZM5.40234 28.4023H1.60352V34.3984H5.40234C6.30729 34.3984 7.0332 34.125 7.58008 33.5781C8.12695 33.0312 8.40039 32.3053 8.40039 31.4004C8.40039 30.4954 8.12695 29.7695 7.58008 29.2227C7.0332 28.6758 6.30729 28.4023 5.40234 28.4023ZM15.0113 39.6035H23.3121V41H13.5074V26.9961H23.107V28.4023H15.0113V33.002H21.5055V34.3984H15.0113V39.6035ZM31.9934 33.5977C32.0715 33.6107 32.1724 33.6432 32.2961 33.6953C32.4263 33.7409 32.6574 33.8548 32.9895 34.0371C33.3215 34.2129 33.6177 34.4212 33.8781 34.6621C34.1385 34.903 34.3729 35.2415 34.5812 35.6777C34.7896 36.1074 34.8937 36.5827 34.8937 37.1035C34.8937 38.1973 34.4152 39.1543 33.4582 39.9746C32.5077 40.7884 31.2837 41.1953 29.7863 41.1953C29.1743 41.1953 28.5819 41.1204 28.009 40.9707C27.4361 40.8145 26.9608 40.6322 26.5832 40.4238C26.2121 40.209 25.8833 39.9941 25.5969 39.7793C25.3104 39.5645 25.1086 39.3854 24.9914 39.2422L24.7863 38.998L25.7922 38.002C25.8312 38.054 25.8866 38.1224 25.9582 38.207C26.0363 38.2852 26.1991 38.4284 26.4465 38.6367C26.7004 38.8385 26.9706 39.0208 27.257 39.1836C27.5435 39.3398 27.9178 39.4831 28.3801 39.6133C28.8423 39.737 29.3111 39.7988 29.7863 39.7988C30.8931 39.7988 31.7687 39.5319 32.4133 38.998C33.0643 38.4642 33.3898 37.8327 33.3898 37.1035C33.3898 36.3158 33.0643 35.6517 32.4133 35.1113C31.7687 34.571 30.8931 34.3008 29.7863 34.3008H28.1945V32.9043H29.7863C30.7434 32.9043 31.4986 32.6797 32.052 32.2305C32.6118 31.7812 32.8918 31.2376 32.8918 30.5996C32.8918 29.9225 32.6151 29.3529 32.0617 28.8906C31.5083 28.4284 30.7499 28.1973 29.7863 28.1973C29.1353 28.1973 28.5201 28.3307 27.9406 28.5977C27.3612 28.8646 26.938 29.1315 26.6711 29.3984L26.2902 29.7988L25.2941 28.8027C25.3332 28.7507 25.3951 28.679 25.4797 28.5879C25.5643 28.4902 25.7499 28.3275 26.0363 28.0996C26.3228 27.8717 26.6255 27.6732 26.9445 27.5039C27.2701 27.3281 27.6867 27.1686 28.1945 27.0254C28.7089 26.8757 29.2395 26.8008 29.7863 26.8008C31.1861 26.8008 32.3026 27.1589 33.1359 27.875C33.9693 28.5846 34.3859 29.4603 34.3859 30.502C34.3859 30.9577 34.3013 31.3711 34.132 31.7422C33.9693 32.1133 33.7707 32.4095 33.5363 32.6309C33.3085 32.8522 33.0773 33.041 32.843 33.1973C32.6086 33.347 32.4035 33.4544 32.2277 33.5195L31.9934 33.5977ZM40.0887 34.8965L47.2859 26.9961H49.1805L43.8875 32.7969L49.6883 41H47.8816L42.8816 33.9004L40.0887 36.8984V41H38.5848V26.9961H40.0887V34.8965ZM59.9809 35.6973L57.2855 29.0957L54.5805 35.6973H59.9809ZM60.5863 37.1035H53.9848L52.3832 41H50.7816L56.5824 26.9961H57.9789L63.7797 41H62.1879L60.5863 37.1035Z" fill="black"/>
</svg>
