<svg width="15" height="15" viewBox="0 0 15 15" fill="none" xmlns="http://www.w3.org/2000/svg">
<path d="M13.2201 10.3875C15.5932 8.01433 15.5931 4.15296 13.2201 1.77984C10.847 -0.59328 6.98567 -0.59328 4.6126 1.77984C2.59933 3.79311 2.29442 6.78735 3.69705 9.12554C3.69705 9.12554 3.7978 9.29456 3.66172 9.43054C2.88544 10.2068 0.556438 12.5358 0.556438 12.5358C-0.0616431 13.1539 -0.208782 14.0181 0.339329 14.5663L0.433701 14.6606C0.981812 15.2088 1.84609 15.0617 2.46412 14.4436C2.46412 14.4436 4.7882 12.1195 5.56289 11.3448C5.70548 11.2022 5.87446 11.303 5.87446 11.303C8.2126 12.7056 11.2068 12.4007 13.2201 10.3875ZM5.73626 9.26373C3.98277 7.51024 3.98282 4.65715 5.73631 2.90365C7.4898 1.15021 10.3429 1.15016 12.0963 2.90365C13.8498 4.6571 13.8498 7.51024 12.0963 9.26373C10.3429 11.0171 7.48981 11.0171 5.73626 9.26373Z" fill="white"/>
</svg>
