<svg width="40" height="18" viewBox="0 0 40 18" fill="none" xmlns="http://www.w3.org/2000/svg">
<path d="M0 8.76483C0 13.5978 3.93181 17.5297 8.76483 17.5297C12.2625 17.5297 15.4164 15.4406 16.8003 12.2708H32.9558C33.0919 12.2708 33.2261 12.2391 33.3477 12.1782L38.6066 9.54876C38.8587 9.42272 39.0348 9.18326 39.0798 8.90515C39.1249 8.62705 39.0336 8.34429 38.8344 8.14498L33.5755 2.88608C33.2332 2.5439 32.6783 2.5439 32.3359 2.88608L30.3263 4.89586L28.3166 2.88617C27.9743 2.54399 27.4194 2.54399 27.077 2.88617L25.0674 4.89586L23.0577 2.88617C22.7154 2.54399 22.1606 2.54399 21.8181 2.88617L19.4454 5.2589H16.8002C15.4163 2.0891 12.2625 0 8.76474 0C3.93181 0 0 3.9319 0 8.76483V8.76483ZM15.3781 6.42751C15.5018 6.77776 15.8329 7.01186 16.2044 7.01186H19.8085C20.041 7.01186 20.2638 6.91948 20.4283 6.75514L22.438 4.74554L24.4476 6.75523C24.79 7.09741 25.3448 7.09741 25.6873 6.75523L27.6969 4.74554L29.7065 6.75523C30.0489 7.09741 30.6037 7.09741 30.9462 6.75523L32.9558 4.74554L36.735 8.52476L32.7488 10.5178H16.2044C15.833 10.5178 15.5018 10.7519 15.3781 11.1021C14.3895 13.8981 11.7318 15.7767 8.76483 15.7767C4.89849 15.7767 1.75297 12.6312 1.75297 8.76483C1.75297 4.89849 4.89849 1.75297 8.76483 1.75297C11.7319 1.75297 14.3895 3.63153 15.3781 6.42751V6.42751Z" fill="#40B7E7"/>
</svg>
