<svg width="45" height="19" viewBox="0 0 45 19" fill="none" xmlns="http://www.w3.org/2000/svg">
<path d="M36.3277 1.60701L31.3105 4.9365C30.7013 3.86439 29.5476 3.14892 28.2613 3.14892H23.9946C23.5606 3.14892 23.1491 2.99737 22.8361 2.72207L22.2186 2.17909C18.9182 -0.726188 13.9397 -0.72645 10.6384 2.17883L9.31123 3.34621L7.01186 4.97165V4.46373C7.01186 3.97974 6.61937 3.58725 6.13538 3.58725H0.876483C0.392489 3.58725 0 3.97974 0 4.46373V17.611C0 18.095 0.392489 18.4875 0.876483 18.4875H6.13538C6.61937 18.4875 7.01186 18.095 7.01186 17.611V15.4198H9.7677L24.8941 18.4702C24.9516 18.4818 25.0096 18.4875 25.0674 18.4875C25.2527 18.4875 25.435 18.4286 25.5868 18.3171L31.7026 13.8184C32.0925 13.5316 32.1761 12.983 31.8893 12.593C31.6025 12.2032 31.054 12.1196 30.6639 12.4063L24.8606 16.6751L10.0285 13.6842C9.97148 13.6727 9.91337 13.6669 9.85517 13.6669H7.01186V7.11851C10.7562 4.46951 10.1132 5.01022 11.7963 3.49504C14.4374 1.17078 18.42 1.1707 21.0607 3.4953L21.6785 4.03846C22.3116 4.59538 23.134 4.90206 23.9946 4.90206H28.2614C29.2246 4.90206 30.0144 5.69887 30.0144 6.66467C30.0144 7.6259 29.228 8.40799 28.2614 8.40799H17.7436C17.2596 8.40799 16.8671 8.80048 16.8671 9.28447C16.8671 9.76846 17.2596 10.161 17.7436 10.161H28.2614C30.1697 10.161 31.7257 8.63237 31.7655 6.73864L37.2943 3.0696C39.0321 1.92535 41.2668 2.16165 42.7193 3.53895L37.0162 7.73389C36.6264 8.02067 36.5428 8.56935 36.8295 8.9593C37.1163 9.34916 37.6648 9.43286 38.055 9.14599L44.5198 4.39063C44.9052 4.10709 44.992 3.56691 44.7149 3.17679C42.7894 0.467668 39.1066 -0.22265 36.3277 1.60701V1.60701ZM5.2589 16.7344H1.75297V5.34012H5.2589V16.7344Z" fill="#40B7E7"/>
</svg>
